<?xml version="1.0" standalone="no"?>
<!DOCTYPE svg PUBLIC "-//W3C//DTD SVG 20010904//EN"
 "http://www.w3.org/TR/2001/REC-SVG-20010904/DTD/svg10.dtd">
<svg version="1.0" xmlns="http://www.w3.org/2000/svg"
 width="1500.000000pt" height="1500.000000pt" viewBox="0 0 1500.000000 1500.000000"
 preserveAspectRatio="xMidYMid meet">

<g transform="translate(0.000000,1500.000000) scale(0.100000,-0.100000)"
fill="#000000" stroke="none">
<path d="M9706 10029 c-48 -11 -199 -81 -247 -115 l-36 -25 23 -78 c52 -181
53 -272 19 -1641 -32 -1265 -33 -1124 13 -1170 64 -64 159 -75 245 -27 21 12
39 30 42 42 2 11 20 421 40 910 20 490 45 1072 56 1295 21 419 21 700 0 757
-22 58 -67 73 -155 52z"/>
<path d="M8930 9861 c-57 -18 -201 -89 -234 -115 -19 -15 -19 -17 -2 -68 55
-169 57 -268 30 -1443 l-16 -740 -32 -53 c-105 -180 -354 -454 -476 -525 -187
-109 -371 -103 -491 16 -37 37 -86 124 -103 183 -5 17 24 52 149 183 324 339
421 471 491 666 25 71 29 94 29 200 0 138 -13 173 -84 238 -86 78 -219 77
-387 -3 -97 -47 -205 -143 -295 -264 -68 -91 -175 -298 -213 -414 -70 -210
-92 -422 -60 -588 10 -54 18 -104 18 -110 -2 -24 -138 -218 -196 -280 -68 -72
-121 -107 -188 -124 -60 -15 -92 -2 -115 46 -18 38 -18 62 1 264 8 83 -9 174
-41 222 -21 31 -97 86 -140 101 -5 2 20 36 57 75 192 205 266 411 207 585 -63
187 -192 240 -373 154 -185 -88 -347 -271 -486 -548 -33 -66 -60 -115 -60
-107 0 47 26 289 60 568 51 416 67 587 81 840 19 358 -4 454 -110 452 -72 -2
-262 -78 -313 -127 -33 -30 -32 -26 -13 -88 22 -75 43 -243 56 -464 18 -296
-7 -1418 -46 -2053 -9 -135 -18 -257 -21 -271 -8 -43 16 -118 43 -136 22 -15
33 -15 86 -4 34 7 85 25 112 39 l50 27 0 435 0 435 74 130 c167 292 243 404
330 483 42 39 106 71 139 72 59 0 122 -74 122 -143 0 -44 -63 -171 -127 -257
l-48 -64 -88 -12 c-103 -14 -165 -46 -210 -110 -36 -51 -38 -114 -7 -179 55
-114 194 -115 281 -3 18 24 36 47 40 52 4 5 22 -13 38 -40 37 -57 39 -101 15
-256 -14 -85 -14 -113 -5 -168 34 -188 153 -304 293 -286 66 9 168 48 221 85
72 49 223 215 296 327 38 58 72 111 74 117 2 7 14 -1 27 -18 79 -102 196 -183
322 -222 74 -23 217 -22 293 1 86 26 210 89 291 149 93 69 280 253 356 349 34
43 63 78 65 78 2 0 0 -58 -3 -128 l-7 -128 33 -38 c44 -50 84 -69 145 -69 54
0 142 32 150 55 2 7 16 290 30 628 41 983 64 1504 81 1815 21 372 11 520 -38
572 -27 28 -79 30 -158 4z m-982 -1693 c33 -36 46 -106 33 -179 -23 -134 -117
-284 -301 -484 l-47 -50 5 46 c5 50 -13 79 -49 79 -18 0 -20 5 -14 48 19 135
77 317 131 409 78 133 185 191 242 131z"/>
<path d="M4213 9135 c-226 -61 -479 -405 -633 -860 -153 -452 -222 -958 -199
-1471 27 -598 140 -1048 343 -1359 106 -163 261 -287 421 -338 98 -31 242 -30
340 2 491 162 818 803 886 1736 49 671 -132 1575 -403 2012 -67 109 -178 225
-244 255 -64 29 -140 29 -225 0 l-66 -23 -57 31 c-64 33 -87 35 -163 15z m372
-297 c88 -92 187 -336 269 -663 104 -416 146 -749 146 -1161 0 -538 -95 -1021
-265 -1342 -120 -226 -236 -330 -380 -340 -82 -6 -138 22 -210 101 -223 246
-388 1035 -372 1775 12 543 103 967 295 1375 53 112 72 139 72 99 0 -21 48
-100 73 -121 15 -11 17 -11 17 2 0 30 82 177 127 228 44 48 127 99 162 99 8 0
38 -24 66 -52z"/>
<path d="M10579 8946 c-102 -36 -168 -76 -236 -142 -57 -55 -113 -145 -113
-182 0 -7 -18 -54 -39 -105 -77 -181 -106 -346 -98 -570 4 -134 9 -168 42
-287 49 -184 108 -304 182 -378 101 -101 212 -139 353 -121 41 5 75 8 76 6 2
-1 -1 -155 -7 -341 l-9 -339 -49 -66 c-72 -97 -177 -194 -233 -216 -57 -21
-128 -16 -167 12 -14 11 -37 40 -51 65 l-24 46 103 108 c160 167 221 273 221
380 0 175 -185 189 -331 25 -120 -134 -195 -375 -161 -518 9 -39 7 -45 -30
-102 -48 -74 -91 -111 -128 -111 -35 0 -47 15 -75 92 l-22 62 20 55 c18 48 21
79 21 221 0 110 -4 175 -12 194 -11 26 -16 28 -53 23 -67 -9 -85 -27 -104
-109 -27 -114 -31 -276 -10 -380 l17 -88 -26 -42 c-37 -61 -47 -73 -86 -97
-38 -23 -99 -28 -132 -10 -52 28 -73 159 -44 274 11 40 12 63 5 85 -8 21 -6
61 6 147 10 65 19 121 22 126 8 14 -52 6 -93 -12 -47 -21 -79 -58 -95 -110 -7
-20 -13 -123 -15 -235 l-4 -200 -32 -54 c-51 -83 -112 -142 -148 -142 -23 0
-31 5 -36 24 -3 13 -1 118 5 234 8 178 8 220 -5 268 -26 99 -70 144 -144 144
-82 0 -172 -75 -238 -198 l-31 -57 6 83 6 82 -43 0 c-51 0 -119 -35 -125 -65
-2 -11 -6 -114 -8 -230 -4 -235 -2 -228 -94 -368 -49 -74 -73 -92 -109 -83
-44 11 -49 35 -54 298 -3 135 -8 249 -11 252 -3 4 -24 0 -47 -8 l-40 -14 9 31
c14 48 11 63 -16 96 -34 40 -97 50 -160 26 -68 -25 -172 -143 -229 -258 -60
-122 -77 -189 -83 -327 l-5 -115 -43 -61 c-29 -40 -59 -69 -89 -84 -45 -24
-45 -24 -67 -5 -21 20 -21 24 -17 205 3 102 1 216 -3 253 -16 128 -83 208
-161 193 -81 -15 -179 -108 -247 -236 -18 -33 -31 -49 -34 -40 -2 8 -10 37
-16 65 -44 183 -195 160 -340 -51 -31 -45 -61 -90 -67 -100 -9 -15 -10 -7 -6
36 6 72 -17 130 -50 130 -34 0 -134 -63 -128 -81 2 -8 3 -93 2 -189 l-3 -175
-46 -70 c-65 -99 -178 -213 -238 -241 -95 -45 -186 -25 -230 51 -14 23 -25 48
-25 55 0 7 37 52 83 99 112 116 165 184 199 257 51 109 47 209 -9 254 -33 26
-113 26 -169 1 -195 -89 -334 -434 -265 -659 35 -118 128 -201 241 -217 118
-16 286 89 423 265 l27 35 0 -72 c0 -130 32 -153 121 -87 37 27 49 42 49 62 0
15 5 83 10 152 15 206 67 357 150 440 51 51 84 60 113 31 21 -20 22 -31 22
-189 0 -92 -4 -224 -9 -293 -9 -126 -9 -127 13 -134 15 -4 40 2 75 19 l53 26
6 129 c12 225 75 411 171 499 52 48 79 53 101 18 13 -19 15 -58 14 -232 -3
-263 8 -316 71 -349 89 -46 239 20 325 145 l28 40 34 -40 c38 -44 88 -63 131
-51 95 28 196 112 241 202 l29 59 16 -47 c35 -102 92 -139 173 -113 56 19 89
46 128 103 l35 52 0 -63 c0 -47 3 -62 14 -62 28 0 65 20 104 54 l39 36 7 187
7 187 50 104 c59 122 123 195 167 190 47 -5 53 -43 47 -305 -7 -256 -5 -266
55 -317 25 -20 42 -26 80 -26 27 0 60 4 75 10 38 14 120 95 164 161 l39 58 27
-34 c53 -71 156 -97 264 -66 52 15 133 87 158 142 10 21 20 38 23 38 3 0 17
-18 33 -40 15 -21 42 -46 60 -55 68 -33 160 21 243 141 20 30 40 55 43 55 3 0
18 -15 33 -34 42 -53 119 -86 199 -86 104 0 187 46 312 173 l98 99 -3 -61 c-2
-52 1 -64 20 -83 26 -26 94 -30 117 -7 11 11 19 121 35 485 11 260 20 494 20
522 l0 50 65 48 c175 128 291 356 333 650 l17 122 85 62 c153 113 366 335 529
553 98 129 122 206 81 247 -19 19 -23 19 -49 5 -16 -8 -51 -45 -77 -82 -93
-131 -328 -358 -509 -493 l-70 -52 -6 29 c-4 15 -14 68 -23 117 -22 118 -56
197 -118 280 -148 197 -403 292 -599 222z m234 -199 c72 -31 154 -162 191
-307 9 -36 20 -115 23 -176 l6 -112 -35 -11 c-55 -18 -165 -28 -224 -20 -70 9
-136 48 -173 103 -36 52 -81 180 -88 252 -5 45 -2 59 22 100 44 75 96 125 160
156 69 32 74 33 118 15z m-201 -850 c107 -51 221 -59 342 -22 27 8 51 14 52
12 6 -6 -28 -152 -47 -201 -28 -76 -32 -80 -56 -65 -17 10 -30 9 -79 -10 -33
-12 -70 -30 -83 -40 -22 -17 -23 -21 -12 -51 19 -56 14 -97 -11 -104 -40 -10
-108 -6 -136 8 -40 21 -87 75 -116 131 -55 111 -90 311 -79 457 l5 73 81 -80
c52 -50 103 -90 139 -108z m-232 -1086 c17 -33 11 -95 -15 -147 -26 -51 -124
-178 -132 -170 -3 3 0 21 7 41 13 39 -1 71 -25 61 -10 -3 -10 6 -3 37 31 137
132 244 168 178z m-2456 -517 c3 -9 6 -33 6 -55 l0 -40 30 16 c16 8 34 15 40
15 8 0 10 -48 8 -162 -3 -149 -5 -167 -27 -213 -14 -27 -48 -73 -76 -102 -43
-45 -57 -53 -88 -53 -49 0 -68 30 -74 118 -3 51 0 81 16 126 23 64 27 106 12
122 -15 14 44 155 85 202 38 44 58 52 68 26z m-2000 -426 c34 -49 10 -130 -69
-233 -29 -38 -67 -83 -84 -99 l-31 -30 0 51 c0 60 31 186 59 241 21 42 74 92
96 92 8 0 21 -10 29 -22z"/>
<path d="M3011 4398 c-76 -13 -125 -82 -107 -153 11 -44 63 -91 138 -125 117
-53 141 -85 95 -128 -16 -16 -36 -22 -66 -22 -36 0 -49 6 -77 34 -19 19 -34
43 -34 55 0 16 -6 21 -25 21 -25 0 -25 -1 -25 -80 0 -79 0 -80 25 -80 15 0 25
6 25 15 0 12 5 12 41 0 84 -30 188 -7 225 50 22 34 22 103 0 137 -10 16 -56
46 -109 74 -112 57 -127 69 -127 106 0 22 7 32 34 45 52 24 104 3 131 -54 15
-31 26 -42 43 -43 21 0 22 4 22 75 0 73 -1 75 -25 75 -14 0 -25 -5 -25 -11 0
-7 -7 -8 -17 -4 -39 15 -100 21 -142 13z"/>
<path d="M3630 4404 c-72 -11 -92 -18 -129 -50 -100 -86 -119 -237 -44 -346
70 -102 238 -117 335 -30 54 48 78 102 78 176 0 137 -68 228 -185 246 -22 3
-47 5 -55 4z m55 -58 c92 -39 114 -261 35 -346 -22 -24 -37 -30 -68 -30 -82 0
-132 75 -132 200 0 95 25 154 72 175 42 18 51 18 93 1z"/>
<path d="M6052 4393 c-5 -10 -40 -103 -77 -206 -51 -141 -74 -193 -92 -204
-13 -8 -23 -24 -23 -34 0 -17 8 -19 70 -19 68 0 70 1 70 25 0 19 -5 25 -21 25
-16 0 -19 4 -14 18 4 9 12 29 17 45 10 26 13 27 79 27 57 0 70 -3 79 -19 15
-29 12 -68 -5 -75 -8 -3 -15 -15 -15 -26 0 -19 6 -20 90 -20 89 0 90 0 90 25
0 18 -5 25 -20 25 -11 0 -20 6 -20 13 0 6 -36 102 -79 212 -64 164 -82 201
-99 203 -12 2 -24 -4 -30 -15z m33 -186 c10 -34 21 -68 23 -74 2 -9 -12 -13
-48 -13 -45 0 -51 2 -46 17 4 9 15 43 24 75 9 32 19 58 22 58 3 0 14 -28 25
-63z"/>
<path d="M9202 4400 c-61 -9 -121 -55 -154 -119 -36 -69 -39 -171 -7 -237 55
-115 144 -142 332 -103 l67 14 0 72 c0 62 3 74 20 83 11 6 20 20 20 30 0 18
-7 20 -85 20 -84 0 -85 0 -85 -25 0 -18 5 -25 20 -25 18 0 20 -7 20 -59 0 -33
-4 -62 -9 -65 -26 -17 -100 -17 -133 -2 -56 27 -83 85 -83 181 0 66 4 87 24
122 54 95 177 93 217 -3 9 -23 21 -34 34 -34 18 0 20 7 20 75 0 73 -1 75 -25
75 -14 0 -25 -5 -25 -11 0 -7 -7 -8 -17 -4 -35 13 -109 21 -151 15z"/>
<path d="M6478 4393 c-11 -3 -18 -14 -18 -29 0 -19 5 -24 26 -24 l26 0 -4
-171 c-3 -165 -4 -172 -25 -187 -13 -8 -23 -23 -23 -33 0 -17 9 -19 100 -19
l100 0 0 25 c0 21 -5 25 -30 25 l-30 0 0 65 c0 58 2 65 20 65 14 0 32 -19 57
-61 68 -111 77 -119 139 -119 46 0 54 3 54 19 0 10 -11 26 -25 35 -13 9 -42
43 -64 75 -22 33 -46 61 -53 64 -8 4 -7 6 4 6 29 2 87 60 99 99 13 47 -5 107
-41 133 -14 11 -49 23 -79 29 -53 10 -200 12 -233 3z m228 -66 c23 -20 27 -32
27 -72 0 -61 -33 -95 -94 -95 l-39 0 0 83 c0 51 5 88 12 95 19 19 65 14 94
-11z"/>
<path d="M11737 4394 c-27 -8 -18 -49 11 -48 l22 1 0 -179 0 -178 -25 -12
c-14 -6 -25 -19 -25 -30 0 -16 10 -18 100 -18 l100 0 0 25 c0 21 -5 25 -27 25
l-28 0 3 65 c5 92 23 87 94 -25 l57 -90 61 0 c54 0 60 2 60 20 0 12 -9 24 -23
29 -13 5 -36 29 -51 52 -16 24 -39 56 -52 70 l-24 25 35 17 c71 34 99 134 53
192 -34 44 -80 57 -208 61 -63 2 -123 1 -133 -2z m246 -75 c10 -13 17 -38 17
-66 0 -59 -32 -93 -90 -93 l-40 0 0 89 c0 62 4 91 13 95 24 11 82 -4 100 -25z"/>
<path d="M4050 4364 c0 -23 3 -26 25 -22 l25 5 0 -171 c0 -94 -4 -176 -8 -182
-4 -6 -15 -13 -24 -17 -10 -3 -18 -16 -18 -27 0 -19 6 -20 100 -20 l100 0 0
25 c0 21 -5 25 -30 25 l-30 0 0 75 0 75 31 0 c24 0 32 -6 40 -30 7 -19 18 -30
30 -30 17 0 19 8 19 80 0 79 0 80 -25 80 -20 0 -25 -5 -25 -25 0 -22 -4 -25
-35 -25 l-35 0 0 59 c0 33 4 71 10 85 8 23 15 26 55 26 50 0 85 -25 85 -60 0
-15 7 -20 26 -20 25 0 26 2 20 38 -3 20 -6 47 -6 60 0 22 -1 22 -165 22 l-165
0 0 -26z"/>
<path d="M4530 4315 c0 -67 2 -75 19 -75 14 0 21 10 25 35 8 39 47 75 82 75
l24 0 0 -180 c0 -169 -1 -180 -20 -190 -11 -6 -20 -20 -20 -30 0 -19 7 -20 95
-20 95 0 95 0 95 25 0 20 -5 25 -25 25 l-25 0 0 185 0 185 29 0 c39 0 71 -28
80 -70 5 -26 12 -35 26 -35 23 0 30 35 20 102 l-6 43 -200 0 -199 0 0 -75z"/>
<path d="M5080 4366 c0 -15 7 -26 17 -28 12 -2 35 -59 83 -203 66 -199 67
-200 97 -203 34 -3 29 -14 98 222 26 93 35 113 35 81 0 -11 21 -84 47 -162 47
-143 48 -143 78 -143 l31 0 53 178 c57 187 74 229 103 238 10 3 18 14 18 25 0
17 -8 19 -76 19 -72 0 -75 -1 -72 -22 2 -17 9 -23 26 -22 17 0 21 -3 16 -15
-4 -9 -23 -74 -43 -145 -27 -99 -37 -123 -42 -105 -4 13 -26 88 -50 167 l-42
142 -32 0 -33 0 -48 -165 -49 -165 -32 123 c-38 146 -39 157 -13 164 11 3 20
14 20 24 0 17 -9 19 -95 19 -94 0 -95 0 -95 -24z"/>
<path d="M7032 4368 c2 -17 9 -23 26 -22 l22 1 0 -179 0 -178 -25 -12 c-14 -6
-25 -19 -25 -30 0 -17 12 -18 174 -18 l175 0 6 54 c9 69 4 91 -20 91 -13 0
-21 -10 -27 -32 -12 -45 -42 -63 -108 -63 l-55 0 3 85 c3 82 4 85 27 85 26 0
55 -24 55 -46 0 -8 9 -14 20 -14 18 0 20 7 20 80 0 79 0 80 -25 80 -21 0 -25
-5 -25 -30 0 -28 -3 -30 -35 -30 l-36 0 3 78 3 77 43 3 c54 4 92 -18 92 -53 0
-20 5 -25 25 -25 24 0 25 3 25 60 l0 60 -171 0 -170 0 3 -22z"/>
<path d="M7860 4364 c0 -23 3 -26 25 -22 l25 5 0 -171 c0 -94 -4 -176 -8 -182
-4 -6 -15 -13 -24 -17 -10 -3 -18 -16 -18 -27 0 -19 6 -20 175 -20 l175 0 0
75 c0 68 -2 75 -20 75 -15 0 -20 -7 -20 -25 0 -14 -11 -37 -25 -50 -20 -21
-34 -25 -85 -25 l-61 0 3 83 c3 81 3 82 31 85 22 3 31 -3 45 -27 9 -17 25 -31
35 -31 15 0 17 10 17 80 0 79 0 80 -25 80 -21 0 -25 -5 -25 -31 0 -29 -2 -30
-37 -27 l-38 3 -3 51 c-2 27 2 62 7 77 9 24 16 27 56 27 50 0 85 -25 85 -60 0
-15 7 -20 26 -20 25 0 26 2 20 38 -3 20 -6 47 -6 60 0 22 -1 22 -165 22 l-165
0 0 -26z"/>
<path d="M8390 4364 c0 -23 3 -26 25 -22 l25 5 0 -179 0 -178 -25 -12 c-14 -6
-25 -19 -25 -30 0 -16 9 -18 80 -18 79 0 80 0 80 25 0 20 -5 25 -25 25 l-25 0
0 128 c1 121 1 126 18 106 9 -11 65 -82 124 -157 87 -111 113 -137 133 -137
l25 0 0 196 c0 195 6 234 35 234 8 0 15 9 15 20 0 18 -7 20 -75 20 -73 0 -75
-1 -75 -25 0 -20 5 -25 25 -25 l25 0 0 -132 c-1 -127 -1 -132 -18 -112 -9 11
-65 82 -124 157 l-108 137 -55 0 c-53 0 -55 -1 -55 -26z"/>
<path d="M9650 4365 c0 -18 5 -25 20 -25 19 0 20 -7 20 -175 0 -164 -1 -175
-20 -185 -11 -6 -20 -20 -20 -30 0 -19 7 -20 95 -20 95 0 95 0 95 25 0 20 -5
25 -25 25 l-25 0 2 178 c3 173 4 177 26 187 12 5 22 18 22 27 0 16 -11 18 -95
18 -95 0 -95 0 -95 -25z"/>
<path d="M10020 4364 c0 -23 3 -26 25 -22 l25 5 0 -179 0 -178 -25 -12 c-14
-6 -25 -19 -25 -30 0 -16 9 -18 80 -18 79 0 80 0 80 25 0 20 -5 25 -25 25
l-25 0 0 128 c1 121 1 126 18 106 9 -11 65 -82 124 -157 87 -111 113 -137 133
-137 l25 0 0 196 c0 195 6 234 35 234 8 0 15 9 15 20 0 18 -7 20 -75 20 -73 0
-75 -1 -75 -25 0 -20 5 -25 25 -25 l25 0 0 -132 c-1 -127 -1 -132 -18 -112 -9
11 -65 82 -124 157 l-108 137 -55 0 c-53 0 -55 -1 -55 -26z"/>
<path d="M10660 4365 c0 -18 5 -25 20 -25 19 0 20 -7 20 -175 0 -164 -1 -175
-20 -185 -11 -6 -20 -20 -20 -30 0 -19 8 -20 175 -20 l175 0 0 75 c0 69 -2 75
-20 75 -15 0 -22 -9 -27 -30 -9 -46 -46 -70 -109 -70 l-54 0 0 85 c0 83 0 85
24 85 27 0 56 -24 56 -46 0 -8 10 -14 25 -14 25 0 25 1 25 80 l0 80 -29 0
c-26 0 -30 -3 -28 -27 2 -25 -1 -28 -35 -31 l-38 -3 0 68 c0 79 9 93 60 93 43
0 76 -21 84 -55 4 -16 13 -25 26 -25 18 0 20 7 20 60 l0 60 -165 0 -165 0 0
-25z"/>
<path d="M11190 4365 c0 -20 5 -25 26 -25 l26 0 -4 -171 c-3 -165 -4 -172 -25
-187 -13 -8 -23 -23 -23 -33 0 -18 10 -19 175 -19 l175 0 0 75 c0 68 -2 75
-20 75 -11 0 -20 -7 -20 -15 0 -27 -22 -63 -47 -74 -13 -6 -46 -11 -73 -11
l-50 0 0 85 c0 79 1 85 21 85 32 0 59 -19 59 -40 0 -15 7 -20 25 -20 25 0 25
1 25 80 0 79 0 80 -25 80 -21 0 -25 -5 -25 -30 0 -28 -2 -30 -40 -30 l-40 0 0
61 c0 83 10 99 65 99 35 0 48 -5 64 -26 12 -15 21 -33 21 -40 0 -8 9 -14 20
-14 18 0 20 7 20 60 l0 60 -165 0 -165 0 0 -25z"/>
</g>
</svg>
