<?xml version="1.0" standalone="no"?>
<!DOCTYPE svg PUBLIC "-//W3C//DTD SVG 20010904//EN"
 "http://www.w3.org/TR/2001/REC-SVG-20010904/DTD/svg10.dtd">
<svg version="1.0" xmlns="http://www.w3.org/2000/svg"
 width="1500.000000pt" height="1500.000000pt" viewBox="0 0 1500.000000 1500.000000"
 preserveAspectRatio="xMidYMid meet">
<metadata>
Created by potrace 1.14, written by Peter Selinger 2001-2017
</metadata>
<g transform="translate(0.000000,1500.000000) scale(0.100000,-0.100000)"
fill="#000000" stroke="none">
<path d="M9706 10029 c-48 -11 -199 -81 -247 -115 l-36 -25 23 -78 c52 -181
54 -278 19 -1651 -32 -1258 -33 -1114 13 -1160 64 -64 159 -75 245 -27 21 12
39 30 42 42 2 11 18 369 35 795 17 426 41 966 52 1200 25 505 29 907 10 962
-22 62 -65 78 -156 57z"/>
<path d="M8930 9861 c-57 -18 -201 -89 -234 -115 -18 -15 -18 -18 -3 -68 41
-134 58 -312 51 -545 -2 -87 -11 -477 -19 -868 -8 -390 -17 -728 -19 -750 -7
-81 -244 -385 -413 -530 -249 -213 -544 -191 -654 50 -47 104 -57 83 127 276
308 322 411 463 480 654 25 71 29 94 29 200 0 138 -13 173 -84 238 -87 79
-221 77 -391 -6 -69 -33 -102 -58 -176 -132 -109 -108 -177 -207 -255 -369
-94 -199 -138 -368 -145 -566 -4 -99 -1 -144 14 -215 l20 -90 -35 -58 c-104
-173 -226 -302 -318 -336 -74 -28 -101 -27 -130 5 -32 35 -40 79 -29 178 26
256 -4 354 -129 417 -23 12 -44 23 -46 25 -2 2 29 38 68 80 84 90 161 211 193
303 17 50 23 88 23 156 0 80 -4 97 -32 155 -55 115 -110 155 -213 154 -109 0
-235 -70 -370 -206 -94 -93 -171 -207 -257 -375 -53 -106 -63 -120 -63 -92 0
49 25 282 54 514 65 521 86 767 86 1035 0 186 -8 238 -42 270 -40 37 -131 22
-273 -45 -106 -50 -140 -78 -130 -109 48 -160 75 -452 75 -802 0 -492 -26
-1308 -56 -1799 -10 -148 -14 -287 -10 -308 11 -58 41 -73 118 -57 34 6 84 23
110 36 l48 24 0 434 0 433 104 182 c136 237 200 332 276 409 90 92 161 120
218 86 78 -46 90 -134 32 -247 -19 -37 -57 -98 -85 -135 l-50 -67 -84 -12
c-103 -14 -165 -45 -208 -102 -27 -35 -33 -51 -33 -94 0 -186 193 -240 308
-86 19 26 39 46 44 43 4 -3 20 -25 34 -50 26 -43 27 -50 20 -137 -4 -51 -10
-119 -15 -152 -25 -186 73 -376 210 -404 119 -25 262 34 396 162 85 81 183
206 244 310 18 31 36 57 39 57 4 0 22 -21 41 -46 115 -155 343 -248 526 -214
138 26 279 97 416 208 88 72 257 246 316 325 24 31 45 57 48 57 2 0 1 -58 -3
-128 l-7 -128 33 -38 c44 -50 84 -69 146 -69 52 0 142 34 150 57 2 6 19 396
39 866 19 470 45 1046 57 1280 34 657 30 810 -24 867 -27 28 -79 30 -158 4z
m-982 -1694 c33 -35 47 -114 33 -183 -26 -133 -121 -283 -301 -479 l-47 -50 5
46 c5 50 -13 79 -49 79 -18 0 -20 5 -14 48 35 252 145 487 260 550 35 20 89
14 113 -11z"/>
<path d="M4213 9135 c-222 -60 -476 -402 -627 -844 -92 -267 -147 -521 -191
-877 -15 -117 -21 -423 -14 -611 25 -588 141 -1048 343 -1358 106 -163 261
-287 421 -338 104 -33 242 -30 351 6 423 143 733 669 843 1432 69 478 46 959
-70 1490 -103 466 -254 812 -435 992 -106 107 -198 130 -335 84 l-66 -22 -57
31 c-64 33 -87 35 -163 15z m372 -297 c90 -94 188 -336 274 -683 92 -368 131
-657 138 -1035 12 -613 -75 -1090 -264 -1451 -118 -225 -250 -339 -395 -339
-253 0 -443 454 -545 1300 -22 184 -25 746 -5 915 52 427 135 733 284 1048 28
59 54 107 58 107 4 0 10 -12 13 -27 6 -29 62 -113 75 -113 4 1 26 40 49 88 50
107 119 186 188 218 27 13 56 24 64 24 8 0 38 -24 66 -52z"/>
<path d="M10579 8946 c-102 -36 -168 -76 -236 -142 -57 -55 -113 -145 -113
-182 0 -7 -18 -54 -39 -105 -75 -176 -107 -362 -98 -580 4 -109 11 -157 41
-272 66 -255 159 -400 301 -470 57 -29 66 -30 188 -30 l128 0 -6 -160 c-2 -88
-7 -241 -10 -340 l-6 -179 -49 -66 c-71 -96 -177 -193 -232 -215 -57 -21 -128
-16 -167 12 -14 11 -37 40 -51 65 l-24 46 98 103 c54 56 118 131 142 165 167
233 70 444 -150 326 -165 -89 -302 -410 -257 -604 8 -33 5 -43 -31 -97 -48
-74 -91 -111 -128 -111 -35 0 -47 15 -75 92 l-22 62 20 55 c18 48 21 80 21
221 1 221 -10 241 -103 209 -41 -14 -57 -47 -76 -154 -19 -113 -19 -234 1
-335 l16 -79 -26 -43 c-37 -61 -47 -73 -86 -97 -37 -22 -99 -28 -131 -11 -53
29 -76 155 -48 262 14 52 16 75 8 97 -8 22 -6 61 6 148 10 65 19 121 22 126 8
14 -52 6 -92 -12 -92 -42 -107 -89 -112 -345 l-3 -200 -32 -54 c-51 -83 -112
-142 -148 -142 -23 0 -31 5 -36 24 -3 13 -1 116 4 229 6 119 6 225 1 252 -44
235 -251 218 -388 -33 l-31 -57 6 83 7 82 -44 0 c-42 0 -104 -28 -121 -54 -4
-6 -8 -94 -8 -196 -1 -102 -5 -206 -9 -231 -9 -53 -80 -186 -127 -236 -39 -42
-76 -44 -101 -6 -16 23 -19 60 -23 274 -3 136 -8 250 -11 253 -3 4 -24 0 -46
-8 l-40 -14 10 43 c8 36 7 48 -7 70 -20 30 -71 55 -113 55 -84 0 -213 -123
-287 -273 -59 -121 -76 -188 -83 -327 l-6 -115 -42 -61 c-29 -40 -59 -69 -89
-84 -44 -24 -45 -24 -66 -5 -20 18 -21 27 -19 244 1 124 -2 240 -6 256 -14 56
-57 123 -89 140 -86 47 -221 -50 -315 -225 -32 -59 -32 -59 -51 28 -16 68 -63
122 -109 122 -78 0 -171 -77 -256 -214 -26 -42 -48 -76 -49 -76 -2 0 -1 24 2
53 5 67 -17 127 -48 127 -23 0 -69 -21 -111 -51 -24 -17 -26 -22 -18 -56 5
-21 6 -107 2 -191 l-6 -154 -41 -61 c-63 -95 -183 -216 -241 -243 -63 -30
-138 -32 -179 -4 -31 20 -76 85 -76 109 0 8 37 53 83 100 112 116 165 184 199
257 51 109 47 209 -9 254 -33 26 -113 26 -170 1 -151 -69 -282 -314 -283 -527
0 -186 105 -327 260 -349 118 -16 286 89 423 265 l27 35 0 -72 c0 -88 14 -123
48 -123 35 0 122 66 122 93 0 96 24 305 40 365 27 98 72 184 120 232 51 51 84
60 113 31 21 -20 22 -31 22 -194 0 -94 -4 -227 -9 -293 -9 -120 -9 -122 13
-129 15 -4 40 2 75 19 l53 26 6 127 c10 215 74 407 163 496 50 49 81 57 106
27 16 -20 18 -43 18 -244 -1 -275 10 -321 86 -346 95 -32 228 33 309 150 l28
40 34 -40 c38 -44 88 -63 131 -51 95 28 196 112 241 202 l29 59 16 -47 c35
-102 92 -139 173 -113 56 19 89 46 128 103 l35 52 0 -63 c0 -47 3 -62 14 -62
28 0 65 20 104 54 l39 35 7 187 6 187 50 103 c61 126 123 197 167 192 49 -5
54 -41 48 -305 -7 -256 -5 -266 55 -317 25 -20 42 -26 80 -26 27 0 60 4 75 10
38 14 120 95 164 161 l39 58 27 -34 c54 -71 154 -96 264 -66 51 15 156 111
167 155 3 14 9 26 13 26 3 -1 19 -19 34 -41 75 -108 192 -75 303 86 20 30 40
55 43 55 3 0 18 -15 33 -34 42 -53 119 -86 199 -86 104 0 187 46 312 173 l98
99 -2 -62 c-2 -51 1 -65 19 -83 26 -25 95 -29 117 -6 11 11 19 125 34 491 12
262 21 497 21 522 0 42 3 47 46 77 117 80 227 231 284 386 30 84 64 237 75
346 6 53 10 60 44 81 213 135 632 602 672 749 12 45 5 85 -16 94 -35 13 -64
-10 -133 -100 -90 -118 -325 -348 -461 -450 -109 -82 -121 -85 -121 -24 0 53
-32 182 -60 246 -81 186 -251 323 -440 357 -106 19 -156 17 -231 -10z m289
-238 c49 -48 111 -168 137 -263 9 -33 19 -113 22 -177 l6 -117 -59 -17 c-33
-10 -95 -18 -139 -18 -69 -1 -88 3 -138 27 -77 39 -119 95 -157 214 -41 127
-40 170 6 239 69 104 168 169 243 159 24 -3 49 -18 79 -47z m-244 -813 c74
-37 84 -39 170 -39 53 0 116 7 151 17 32 9 61 15 63 13 6 -7 -38 -177 -59
-226 -23 -53 -28 -57 -46 -39 -14 14 -98 -10 -151 -43 -29 -18 -33 -24 -26
-47 17 -63 21 -102 12 -108 -26 -15 -86 -21 -121 -12 -53 14 -121 80 -153 146
-56 120 -95 350 -80 474 l7 54 77 -76 c56 -55 99 -86 156 -114z m-244 -1084
c17 -33 11 -95 -15 -147 -26 -52 -124 -178 -133 -170 -2 3 1 19 7 36 12 37 -2
75 -25 66 -17 -6 -12 19 19 103 37 100 119 163 147 112z m-2456 -517 c3 -9 6
-33 6 -55 l0 -40 30 16 c16 8 34 15 40 15 6 0 10 -54 10 -158 0 -152 -1 -160
-27 -212 -15 -30 -50 -78 -78 -107 -43 -45 -57 -53 -88 -53 -49 0 -68 30 -74
118 -3 51 0 81 16 126 23 64 27 106 12 122 -15 14 44 155 85 202 38 44 58 52
68 26z m-2000 -426 c34 -49 10 -130 -69 -233 -29 -38 -67 -83 -84 -99 l-31
-30 0 51 c0 60 31 186 59 241 21 42 74 92 96 92 8 0 21 -10 29 -22z"/>
<path d="M3020 4400 c-50 -9 -78 -27 -100 -63 -23 -38 -25 -78 -6 -115 22 -42
56 -69 131 -103 113 -50 138 -84 92 -127 -16 -16 -36 -22 -66 -22 -36 0 -49 6
-77 34 -19 19 -34 43 -34 55 0 16 -6 21 -25 21 -26 0 -26 0 -23 -77 3 -72 5
-78 26 -81 15 -2 22 2 22 12 0 19 -1 19 43 1 66 -27 159 -13 209 32 23 21 39
77 31 114 -8 42 -47 76 -138 121 -98 49 -115 64 -115 98 0 84 140 72 171 -14
10 -27 19 -36 36 -36 22 0 23 3 23 75 0 73 -1 75 -25 75 -14 0 -25 -5 -25 -11
0 -7 -7 -8 -17 -4 -36 14 -99 21 -133 15z"/>
<path d="M3605 4400 c-135 -20 -222 -163 -186 -305 25 -100 94 -162 194 -172
80 -8 134 11 187 66 50 51 70 102 70 176 0 157 -113 257 -265 235z m80 -54
c69 -29 104 -166 71 -278 -19 -68 -52 -98 -106 -98 -80 0 -130 77 -130 200 0
95 25 154 72 175 42 18 51 18 93 1z"/>
<path d="M6057 4403 c-3 -5 -37 -96 -76 -203 -52 -143 -78 -200 -96 -215 -14
-12 -25 -28 -25 -38 0 -14 11 -17 70 -17 68 0 70 1 70 25 0 18 -5 25 -20 25
-24 0 -24 -1 -4 50 l16 40 69 0 c57 0 70 -3 79 -19 15 -29 12 -68 -5 -75 -8
-3 -15 -15 -15 -26 0 -19 6 -20 90 -20 89 0 90 0 90 25 0 18 -5 25 -20 25 -11
0 -20 6 -20 13 0 6 -36 102 -79 212 -63 163 -82 201 -99 203 -11 2 -22 -1 -25
-5z m27 -191 c32 -100 35 -92 -24 -92 -45 0 -51 2 -46 17 4 9 15 43 24 75 9
32 19 58 22 58 3 0 13 -26 24 -58z"/>
<path d="M9201 4398 c-102 -18 -170 -101 -179 -216 -6 -91 10 -143 61 -196 62
-65 149 -83 253 -51 27 8 61 15 77 15 l27 0 0 75 c0 64 3 76 20 85 11 6 20 20
20 30 0 18 -7 20 -85 20 -84 0 -85 0 -85 -25 0 -18 5 -25 20 -25 18 0 20 -7
20 -59 0 -33 -4 -62 -9 -65 -5 -4 -29 -9 -54 -12 -61 -9 -111 16 -140 70 -32
61 -31 185 2 243 54 94 177 93 217 -3 9 -22 21 -34 34 -34 18 0 20 7 20 75 0
73 -1 75 -25 75 -14 0 -25 -5 -25 -11 0 -7 -7 -8 -17 -4 -37 14 -110 21 -152
13z"/>
<path d="M6493 4393 c-27 -4 -33 -9 -33 -29 0 -20 4 -25 23 -22 l22 3 0 -174
c0 -169 -1 -174 -22 -189 -13 -8 -23 -23 -23 -33 0 -17 9 -19 100 -19 l100 0
0 25 c0 21 -5 25 -30 25 l-30 0 0 65 c0 58 2 65 20 65 14 0 32 -19 57 -61 68
-111 77 -119 139 -119 46 0 54 3 54 19 0 10 -11 26 -25 35 -13 9 -42 43 -64
75 -22 33 -46 61 -53 64 -8 4 -7 6 4 6 29 2 87 60 99 99 13 47 -5 107 -41 133
-44 33 -177 47 -297 32z m201 -54 c51 -24 57 -121 9 -159 -16 -12 -41 -20 -64
-20 l-39 0 0 83 c0 51 5 88 12 95 15 15 50 15 82 1z"/>
<path d="M11757 4393 c-32 -4 -38 -8 -35 -26 2 -16 10 -22 26 -21 l22 1 0
-179 0 -178 -25 -12 c-14 -6 -25 -19 -25 -30 0 -16 10 -18 100 -18 l100 0 0
25 c0 21 -5 25 -27 25 l-28 0 3 65 c5 92 23 87 94 -25 l57 -90 61 0 c54 0 60
2 60 20 0 12 -9 24 -23 29 -13 5 -36 29 -51 52 -16 24 -39 56 -52 70 l-24 25
35 17 c102 49 99 191 -4 234 -36 15 -193 25 -264 16z m226 -74 c10 -13 17 -38
17 -66 0 -59 -32 -93 -90 -93 l-40 0 0 89 c0 62 4 91 13 95 24 11 82 -4 100
-25z"/>
<path d="M4050 4364 c0 -23 3 -26 25 -22 l25 5 0 -171 c0 -94 -4 -176 -8 -182
-4 -6 -15 -13 -24 -17 -10 -3 -18 -16 -18 -27 0 -19 6 -20 100 -20 l100 0 0
25 c0 21 -5 25 -30 25 l-30 0 0 75 0 75 31 0 c25 0 33 -6 42 -30 7 -18 19 -30
29 -30 16 0 18 10 18 80 0 79 0 80 -25 80 -20 0 -25 -5 -25 -25 0 -22 -4 -25
-35 -25 l-35 0 0 59 c0 33 4 71 10 85 8 23 15 26 55 26 50 0 85 -25 85 -60 0
-15 7 -20 26 -20 24 0 26 3 20 31 -3 17 -6 44 -6 60 l0 29 -165 0 -165 0 0
-26z"/>
<path d="M4530 4315 c0 -67 2 -75 19 -75 14 0 21 10 25 35 8 39 47 75 82 75
l24 0 0 -180 c0 -169 -1 -180 -20 -190 -11 -6 -20 -20 -20 -30 0 -19 7 -20 95
-20 95 0 95 0 95 25 0 20 -5 25 -25 25 l-25 0 0 185 0 185 29 0 c39 0 71 -28
80 -70 5 -26 12 -35 26 -35 24 0 29 21 20 91 l-6 54 -200 0 -199 0 0 -75z"/>
<path d="M5080 4364 c0 -19 4 -25 14 -21 11 5 31 -42 84 -201 68 -206 69 -207
99 -210 34 -3 29 -14 98 222 26 93 35 113 35 81 0 -11 21 -84 47 -162 47 -143
48 -143 78 -143 l31 0 53 178 c60 200 72 228 101 237 11 3 20 15 20 26 0 17
-8 19 -76 19 -72 0 -75 -1 -72 -22 2 -17 9 -22 27 -20 19 2 22 -1 16 -15 -5
-10 -24 -76 -44 -147 -27 -99 -37 -123 -42 -105 -4 13 -26 88 -50 167 l-42
142 -32 0 -33 0 -48 -165 -48 -164 -33 122 c-38 144 -39 157 -13 164 11 3 20
14 20 24 0 17 -9 19 -95 19 l-95 0 0 -26z"/>
<path d="M7032 4368 c2 -17 9 -23 26 -22 l22 1 0 -179 0 -178 -25 -12 c-14 -6
-25 -19 -25 -30 0 -17 12 -18 174 -18 l174 0 7 66 c8 69 -1 92 -29 81 -9 -4
-16 -16 -16 -27 0 -12 -11 -32 -25 -45 -20 -21 -34 -25 -82 -25 l-58 0 3 85
c3 82 4 85 27 85 26 0 55 -24 55 -46 0 -8 9 -14 20 -14 18 0 20 7 20 80 0 79
0 80 -25 80 -21 0 -25 -5 -25 -30 0 -28 -3 -30 -35 -30 l-36 0 3 78 3 77 43 3
c54 4 92 -18 92 -53 0 -20 5 -25 25 -25 24 0 25 3 25 60 l0 60 -171 0 -170 0
3 -22z"/>
<path d="M7860 4364 c0 -23 3 -26 25 -22 l25 5 0 -171 c0 -94 -4 -176 -8 -182
-4 -6 -15 -13 -24 -17 -10 -3 -18 -16 -18 -27 0 -19 6 -20 175 -20 l175 0 0
75 c0 68 -2 75 -20 75 -15 0 -20 -7 -20 -25 0 -14 -11 -37 -25 -50 -20 -21
-34 -25 -85 -25 l-61 0 3 83 c3 81 3 82 31 85 22 3 31 -3 45 -27 9 -17 25 -31
35 -31 15 0 17 10 17 80 0 79 0 80 -25 80 -21 0 -25 -5 -25 -31 0 -29 -2 -30
-37 -27 l-38 3 -3 51 c-2 27 2 62 7 77 9 24 16 27 56 27 50 0 85 -25 85 -60 0
-15 7 -20 26 -20 24 0 26 3 20 31 -3 17 -6 44 -6 60 l0 29 -165 0 -165 0 0
-26z"/>
<path d="M8392 4368 c2 -17 9 -23 26 -22 l22 1 0 -179 0 -178 -25 -12 c-14 -6
-25 -19 -25 -30 0 -16 9 -18 80 -18 79 0 80 0 80 25 0 20 -5 25 -25 25 l-25 0
0 127 c0 69 3 123 8 119 4 -4 59 -73 122 -154 92 -117 121 -148 143 -150 l27
-3 0 196 c0 196 6 235 35 235 8 0 15 9 15 20 0 18 -7 20 -75 20 -74 0 -75 0
-75 -26 0 -20 4 -25 23 -22 22 3 22 2 24 -132 3 -129 2 -134 -15 -114 -9 11
-66 82 -125 157 l-108 137 -55 0 c-52 0 -55 -1 -52 -22z"/>
<path d="M9650 4364 c0 -21 4 -25 20 -21 19 5 20 0 20 -174 0 -168 -1 -179
-20 -189 -11 -6 -20 -20 -20 -30 0 -19 7 -20 95 -20 95 0 95 0 95 25 0 20 -5
25 -25 25 l-25 0 2 178 c3 173 4 177 26 187 12 5 22 18 22 27 0 16 -11 18 -95
18 l-95 0 0 -26z"/>
<path d="M10022 4368 c2 -17 9 -23 26 -22 l22 1 0 -179 0 -178 -25 -12 c-14
-6 -25 -19 -25 -30 0 -16 9 -18 80 -18 79 0 80 0 80 25 0 20 -5 25 -25 25
l-25 0 0 127 c0 69 3 123 8 119 4 -4 59 -73 122 -154 92 -117 121 -148 143
-150 l27 -3 0 196 c0 196 6 235 35 235 8 0 15 9 15 20 0 18 -7 20 -75 20 -74
0 -75 0 -75 -26 0 -20 4 -25 23 -22 22 3 22 2 24 -132 3 -129 2 -134 -15 -114
-9 11 -66 82 -125 157 l-108 137 -55 0 c-52 0 -55 -1 -52 -22z"/>
<path d="M10660 4364 c0 -21 4 -25 20 -21 19 5 20 0 20 -174 0 -168 -1 -179
-20 -189 -11 -6 -20 -20 -20 -30 0 -19 8 -20 175 -20 l175 0 0 75 c0 69 -2 75
-20 75 -15 0 -22 -9 -27 -30 -9 -46 -46 -70 -109 -70 l-54 0 0 85 c0 79 1 85
21 85 32 0 59 -19 59 -40 0 -15 7 -20 25 -20 25 0 25 1 25 80 l0 80 -29 0
c-26 0 -30 -3 -28 -27 2 -25 -1 -28 -35 -31 l-38 -3 0 68 c0 40 5 74 12 81 7
7 31 12 53 12 44 0 67 -17 79 -57 5 -14 15 -23 27 -23 17 0 19 7 19 60 l0 60
-165 0 -165 0 0 -26z"/>
<path d="M11190 4364 c0 -20 4 -25 23 -22 l22 3 0 -174 c0 -169 -1 -174 -22
-189 -13 -8 -23 -23 -23 -33 0 -18 10 -19 175 -19 l175 0 0 75 c0 67 -2 75
-19 75 -12 0 -20 -9 -24 -29 -10 -50 -43 -71 -109 -71 l-58 0 0 85 c0 79 1 85
21 85 32 0 59 -19 59 -40 0 -15 7 -20 25 -20 25 0 25 1 25 80 0 79 0 80 -25
80 -21 0 -25 -5 -25 -30 0 -28 -2 -30 -40 -30 l-40 0 0 68 c0 40 5 73 12 80 7
7 31 12 53 12 44 0 85 -30 85 -63 0 -10 8 -17 20 -17 18 0 20 7 20 60 l0 60
-165 0 -165 0 0 -26z"/>
</g>
</svg>
